<mxfile host="app.diagrams.net" modified="2023-07-21T08:50:35.876Z" agent="Mozilla/5.0 (Windows NT 10.0; Win64; x64) AppleWebKit/537.36 (KHTML, like Gecko) Chrome/115.0.0.0 Safari/537.36" etag="O5tA7KTniRLYJBT0ZJ2K" version="21.6.5" type="github">
  <diagram name="페이지-1" id="z2NfnLEY6PWcUPAPS0jG">
    <mxGraphModel dx="1434" dy="733" grid="1" gridSize="10" guides="1" tooltips="1" connect="1" arrows="1" fold="1" page="1" pageScale="1" pageWidth="827" pageHeight="1169" math="0" shadow="0">
      <root>
        <mxCell id="0" />
        <mxCell id="1" parent="0" />
        <mxCell id="kWprEXHXPvr3LCSb9jdq-7" value="고객" style="whiteSpace=wrap;html=1;align=center;" vertex="1" parent="1">
          <mxGeometry x="360" y="300" width="120" height="40" as="geometry" />
        </mxCell>
        <mxCell id="kWprEXHXPvr3LCSb9jdq-8" value="주소" style="ellipse;whiteSpace=wrap;html=1;align=center;" vertex="1" parent="1">
          <mxGeometry x="400" y="230" width="100" height="40" as="geometry" />
        </mxCell>
        <mxCell id="kWprEXHXPvr3LCSb9jdq-9" value="이메일" style="ellipse;whiteSpace=wrap;html=1;align=center;fontStyle=4;" vertex="1" parent="1">
          <mxGeometry x="240" y="330" width="100" height="40" as="geometry" />
        </mxCell>
        <mxCell id="kWprEXHXPvr3LCSb9jdq-10" value="고객명&lt;br&gt;" style="ellipse;whiteSpace=wrap;html=1;align=center;" vertex="1" parent="1">
          <mxGeometry x="290" y="230" width="100" height="40" as="geometry" />
        </mxCell>
        <mxCell id="kWprEXHXPvr3LCSb9jdq-14" value="" style="endArrow=none;html=1;rounded=0;entryX=0.5;entryY=0;entryDx=0;entryDy=0;exitX=0.5;exitY=1;exitDx=0;exitDy=0;" edge="1" parent="1" source="kWprEXHXPvr3LCSb9jdq-10" target="kWprEXHXPvr3LCSb9jdq-7">
          <mxGeometry relative="1" as="geometry">
            <mxPoint x="330" y="260" as="sourcePoint" />
            <mxPoint x="490" y="260" as="targetPoint" />
          </mxGeometry>
        </mxCell>
        <mxCell id="kWprEXHXPvr3LCSb9jdq-15" value="가입일" style="ellipse;whiteSpace=wrap;html=1;align=center;" vertex="1" parent="1">
          <mxGeometry x="240" y="280" width="100" height="40" as="geometry" />
        </mxCell>
        <mxCell id="kWprEXHXPvr3LCSb9jdq-16" value="전화번호" style="ellipse;whiteSpace=wrap;html=1;align=center;fontStyle=4;" vertex="1" parent="1">
          <mxGeometry x="514" y="230" width="100" height="40" as="geometry" />
        </mxCell>
        <mxCell id="kWprEXHXPvr3LCSb9jdq-17" value="지역" style="ellipse;whiteSpace=wrap;html=1;align=center;" vertex="1" parent="1">
          <mxGeometry x="290" y="370" width="100" height="40" as="geometry" />
        </mxCell>
        <mxCell id="kWprEXHXPvr3LCSb9jdq-18" value="" style="endArrow=none;html=1;rounded=0;entryX=0.5;entryY=0;entryDx=0;entryDy=0;exitX=0.5;exitY=1;exitDx=0;exitDy=0;" edge="1" parent="1" source="kWprEXHXPvr3LCSb9jdq-8" target="kWprEXHXPvr3LCSb9jdq-7">
          <mxGeometry relative="1" as="geometry">
            <mxPoint x="480" y="220" as="sourcePoint" />
            <mxPoint x="580" y="300" as="targetPoint" />
          </mxGeometry>
        </mxCell>
        <mxCell id="kWprEXHXPvr3LCSb9jdq-19" value="" style="endArrow=none;html=1;rounded=0;exitX=0;exitY=0.5;exitDx=0;exitDy=0;entryX=1;entryY=0.5;entryDx=0;entryDy=0;" edge="1" parent="1" source="kWprEXHXPvr3LCSb9jdq-7" target="kWprEXHXPvr3LCSb9jdq-9">
          <mxGeometry relative="1" as="geometry">
            <mxPoint x="390" y="340" as="sourcePoint" />
            <mxPoint x="320" y="420" as="targetPoint" />
          </mxGeometry>
        </mxCell>
        <mxCell id="kWprEXHXPvr3LCSb9jdq-21" value="" style="endArrow=none;html=1;rounded=0;exitX=0.5;exitY=1;exitDx=0;exitDy=0;entryX=0.5;entryY=0;entryDx=0;entryDy=0;" edge="1" parent="1" source="kWprEXHXPvr3LCSb9jdq-7" target="kWprEXHXPvr3LCSb9jdq-17">
          <mxGeometry relative="1" as="geometry">
            <mxPoint x="360" y="390" as="sourcePoint" />
            <mxPoint x="520" y="390" as="targetPoint" />
          </mxGeometry>
        </mxCell>
        <mxCell id="kWprEXHXPvr3LCSb9jdq-22" value="" style="endArrow=none;html=1;rounded=0;exitX=0.5;exitY=0;exitDx=0;exitDy=0;entryX=0.5;entryY=1;entryDx=0;entryDy=0;" edge="1" parent="1" source="kWprEXHXPvr3LCSb9jdq-7" target="kWprEXHXPvr3LCSb9jdq-16">
          <mxGeometry relative="1" as="geometry">
            <mxPoint x="360" y="390" as="sourcePoint" />
            <mxPoint x="520" y="390" as="targetPoint" />
          </mxGeometry>
        </mxCell>
        <mxCell id="kWprEXHXPvr3LCSb9jdq-23" value="" style="endArrow=none;html=1;rounded=0;exitX=1;exitY=0.5;exitDx=0;exitDy=0;entryX=0;entryY=0.5;entryDx=0;entryDy=0;" edge="1" parent="1" source="kWprEXHXPvr3LCSb9jdq-15" target="kWprEXHXPvr3LCSb9jdq-7">
          <mxGeometry relative="1" as="geometry">
            <mxPoint x="360" y="390" as="sourcePoint" />
            <mxPoint x="520" y="390" as="targetPoint" />
          </mxGeometry>
        </mxCell>
        <mxCell id="kWprEXHXPvr3LCSb9jdq-25" value="고객코드" style="ellipse;whiteSpace=wrap;html=1;align=center;fontStyle=4;" vertex="1" parent="1">
          <mxGeometry x="400" y="370" width="100" height="40" as="geometry" />
        </mxCell>
        <mxCell id="kWprEXHXPvr3LCSb9jdq-26" value="" style="endArrow=none;html=1;rounded=0;entryX=0.5;entryY=0;entryDx=0;entryDy=0;" edge="1" parent="1" target="kWprEXHXPvr3LCSb9jdq-25">
          <mxGeometry relative="1" as="geometry">
            <mxPoint x="420" y="340" as="sourcePoint" />
            <mxPoint x="570" y="390" as="targetPoint" />
          </mxGeometry>
        </mxCell>
      </root>
    </mxGraphModel>
  </diagram>
</mxfile>
